<svg id="Layer_1" data-name="Layer 1" xmlns="http://www.w3.org/2000/svg" viewBox="0 0 1993 1993"><defs><style>.cls-1{fill:#d0d0c3;}.cls-2{fill:#48483e;}.cls-3{fill:#e7db74;}.cls-4{fill:#ee2e74;}</style></defs><title>logo</title><rect class="cls-1" x="508.17" y="1523.81" width="982.88" height="266.61"/><rect class="cls-1" x="508.17" y="1523.81" width="982.88" height="392.71" rx="33.68" ry="33.68"/><rect class="cls-1" x="118.57" y="790.14" width="1764" height="718.23"/><rect class="cls-2" x="508.17" y="271" width="982.88" height="264.85"/><rect class="cls-3" x="508.17" y="551.28" width="982.88" height="124.62"/><rect class="cls-2" x="269.34" y="691.34" width="1460.55" height="83.36"/><circle class="cls-4" cx="611.94" cy="1149.26" r="199.65"/><circle class="cls-4" cx="1397.85" cy="1149.26" r="199.65"/><path class="cls-3" d="M1397.85,909.19c-132.58,0-240.07,107.48-240.07,240.07s107.48,240.07,240.07,240.07c102.72,0,190.35-64.52,224.63-155.23v682.44h15.44V1149.26C1637.92,1016.67,1530.44,909.19,1397.85,909.19Zm0,453.94c-118.11,0-213.87-95.75-213.87-213.87s95.75-213.87,213.87-213.87,213.87,95.75,213.87,213.87S1516,1363.13,1397.85,1363.13Z"/><rect class="cls-2" x="547.63" y="1572.61" width="65.12" height="65.12"/><rect class="cls-2" x="547.63" y="1648.96" width="65.12" height="65.12"/><rect class="cls-4" x="547.63" y="1725.3" width="65.12" height="65.12"/><rect class="cls-4" x="547.63" y="1801.65" width="65.12" height="65.12"/><rect class="cls-2" x="623.97" y="1572.61" width="65.12" height="65.12"/><rect class="cls-4" x="623.97" y="1648.96" width="65.12" height="65.12"/><rect class="cls-4" x="623.97" y="1725.3" width="65.12" height="65.12"/><rect class="cls-4" x="623.97" y="1801.65" width="65.12" height="65.12"/><rect class="cls-2" x="700.32" y="1572.61" width="65.12" height="65.12"/><rect class="cls-4" x="700.32" y="1648.96" width="65.12" height="65.12"/><rect class="cls-4" x="700.32" y="1725.3" width="65.12" height="65.12"/><rect class="cls-4" x="700.32" y="1801.65" width="65.12" height="65.12"/><rect class="cls-2" x="776.67" y="1572.61" width="65.12" height="65.12"/><rect class="cls-2" x="776.67" y="1648.96" width="65.12" height="65.12"/><rect class="cls-2" x="776.67" y="1725.3" width="65.12" height="65.12"/><rect class="cls-4" x="776.67" y="1801.65" width="65.12" height="65.12"/><rect class="cls-2" x="853.01" y="1572.61" width="65.12" height="65.12"/><rect class="cls-2" x="853.01" y="1648.96" width="65.12" height="65.12"/><rect class="cls-4" x="853.01" y="1725.3" width="65.12" height="65.12"/><rect class="cls-4" x="853.01" y="1801.65" width="65.12" height="65.12"/><rect class="cls-2" x="929.36" y="1572.61" width="65.12" height="65.12"/><rect class="cls-4" x="929.36" y="1648.96" width="65.12" height="65.12"/><rect class="cls-4" x="929.36" y="1725.3" width="65.12" height="65.12"/><rect class="cls-4" x="929.36" y="1801.65" width="65.12" height="65.12"/><rect class="cls-4" x="1005.7" y="1572.61" width="65.12" height="65.12"/><rect class="cls-4" x="1005.7" y="1648.96" width="65.12" height="65.12"/><rect class="cls-4" x="1005.7" y="1725.3" width="65.12" height="65.12"/><rect class="cls-4" x="1005.7" y="1801.65" width="65.12" height="65.12"/><rect class="cls-2" x="1082.05" y="1572.61" width="65.12" height="65.12"/><rect class="cls-2" x="1082.05" y="1648.96" width="65.12" height="65.12"/><rect class="cls-4" x="1082.05" y="1725.3" width="65.12" height="65.12"/><rect class="cls-4" x="1082.05" y="1801.65" width="65.12" height="65.12"/><rect class="cls-2" x="1158.39" y="1572.61" width="65.12" height="65.12"/><rect class="cls-4" x="1158.39" y="1648.96" width="65.12" height="65.12"/><rect class="cls-4" x="1158.39" y="1725.3" width="65.12" height="65.12"/><rect class="cls-4" x="1158.39" y="1801.65" width="65.12" height="65.12"/><rect class="cls-2" x="1234.74" y="1572.61" width="65.12" height="65.12"/><rect class="cls-2" x="1234.74" y="1648.96" width="65.12" height="65.12"/><rect class="cls-4" x="1234.74" y="1725.3" width="65.12" height="65.12"/><rect class="cls-4" x="1234.74" y="1801.65" width="65.12" height="65.12"/><rect class="cls-4" x="1311.09" y="1572.61" width="65.12" height="65.12"/><rect class="cls-4" x="1311.09" y="1648.96" width="65.12" height="65.12"/><rect class="cls-4" x="1311.09" y="1725.3" width="65.12" height="65.12"/><rect class="cls-4" x="1311.09" y="1801.65" width="65.12" height="65.12"/><rect class="cls-2" x="1387.43" y="1572.61" width="65.12" height="65.12"/><rect class="cls-4" x="1387.43" y="1648.96" width="65.12" height="65.12"/><rect class="cls-4" x="1387.43" y="1725.3" width="65.12" height="65.12"/><rect class="cls-4" x="1387.43" y="1801.65" width="65.12" height="65.12"/><rect class="cls-2" x="508.17" y="87.08" width="982.88" height="448.76" rx="30" ry="30"/></svg>